<?xml version="1.0" encoding="utf-8"?>
<!-- Generator: Adobe Illustrator 27.8.1, SVG Export Plug-In . SVG Version: 6.00 Build 0)  -->
<svg version="1.1"
	 id="svg3033" xmlns:cc="http://creativecommons.org/ns#" xmlns:dc="http://purl.org/dc/elements/1.1/" xmlns:svg="http://www.w3.org/2000/svg" xmlns:rdf="http://www.w3.org/1999/02/22-rdf-syntax-ns#"
	 xmlns="http://www.w3.org/2000/svg" xmlns:xlink="http://www.w3.org/1999/xlink" x="0px" y="0px" viewBox="0 0 32.3 30.5"
	 style="enable-background:new 0 0 32.3 30.5;" xml:space="preserve">
<g id="g3065">
	<g id="text3035">
		<path id="path3063" d="M0,14.4l2.2-6.9c5.2,1.8,8.9,3.4,11.3,4.7c-0.6-5.9-0.9-9.9-1-12.2h7.1c-0.1,3.2-0.5,7.3-1.1,12.1
			c3.4-1.7,7.2-3.3,11.5-4.7l2.2,6.9c-4.1,1.4-8.2,2.3-12.2,2.7c2,1.7,4.8,4.8,8.4,9.2l-5.9,4.2c-1.9-2.6-4.1-6.1-6.7-10.5
			c-2.4,4.6-4.5,8.1-6.3,10.5l-5.8-4.2c3.8-4.7,6.5-7.7,8.1-9.2C7.8,16.3,3.8,15.4,0,14.4"/>
	</g>
</g>
</svg>
